<svg width="1610" height="297" viewBox="0 0 1610 297" fill="none" xmlns="http://www.w3.org/2000/svg">
<path d="M145.2 133.6L222.6 149.8L227.4 150.4C245 154 259.4 162.8 270.6 176.8C281.8 190.4 287.4 206.4 287.4 224.8V226.6C287.4 247 279.2 263.8 262.8 277C246.8 289.8 228 296.2 206.4 296.2C183.2 296.2 163 290 145.8 277.6C129 265.2 118.2 244.8 113.4 216.4H109.2V289H3V168.4H133.8V198.4C133.8 204 136.6 207.2 142.2 208V163.6L64.8 147.4L60.6 146.8C42.6 143.2 28 134.6 16.8 121C5.6 107 0 90.8 0 72.4V70.6C0 50.2 8 33.6 24 20.8C40.4 7.59999 59.6 0.999992 81.6 0.999992C96 0.999992 109.2 3.19999 121.2 7.6C133.2 12 144.2 20.4 154.2 32.8C164.2 45.2 170.8 61.2 174 80.8H178.2V8.19999H285V128.8H153.6V98.8C153.6 92.8 150.8 89.4 145.2 88.6V133.6Z" fill="#FFFFFF"/>
<path d="M445.341 133.6V89.2C439.741 90 436.941 93.2 436.941 98.8V128.8H306.141V8.19999H412.341V80.8H416.541C419.741 61.2 425.341 45.4 433.341 33.4C441.341 21 450.541 12.6 460.941 8.19999C471.341 3.39999 483.741 0.999992 498.141 0.999992C512.141 0.999992 524.941 3.79999 536.541 9.39999C548.541 15 558.141 23.2 565.341 34C572.941 44.8 576.741 57 576.741 70.6V289H469.941V216.4H465.741C460.941 244.8 449.941 265.4 432.741 278.2C415.941 290.6 396.141 296.6 373.341 296.2C351.341 296.2 332.141 289.8 315.741 277C299.741 263.8 291.741 247 291.741 226.6C291.741 206.6 297.541 189.8 309.141 176.2C320.741 162.6 336.541 153.8 356.541 149.8L445.341 133.6ZM445.341 193.6V161.8L436.941 163.6V208.6C442.541 207.8 445.341 202.8 445.341 193.6Z" fill="#FFFFFF"/>
<path d="M736.552 133.6V89.2C730.952 90 728.152 93.2 728.152 98.8V128.8H597.352V8.19999H703.552V80.8H707.752C710.952 61.2 716.552 45.4 724.552 33.4C732.552 21 741.752 12.6 752.152 8.19999C762.552 3.39999 774.952 0.999992 789.352 0.999992C803.352 0.999992 816.152 3.79999 827.752 9.39999C839.752 15 849.352 23.2 856.552 34C864.152 44.8 867.952 57 867.952 70.6V289H761.152V216.4H756.952C752.152 244.8 741.152 265.4 723.952 278.2C707.152 290.6 687.352 296.6 664.552 296.2C642.552 296.2 623.352 289.8 606.952 277C590.952 263.8 582.952 247 582.952 226.6C582.952 206.6 588.752 189.8 600.352 176.2C611.952 162.6 627.752 153.8 647.752 149.8L736.552 133.6ZM736.552 193.6V161.8L728.152 163.6V208.6C733.752 207.8 736.552 202.8 736.552 193.6Z" fill="#FFFFFF"/>
<path d="M939.647 289L863.447 8.19999H1008.65L1017.05 38.2L1064.45 212.8L1065.05 211.6C1067.05 203.2 1067.05 195 1065.05 187L1060.25 170.8L1024.25 38.2L1020.65 25.6L1025.45 8.19999H1159.25L1167.65 38.2L1215.05 212.8L1215.65 211.6C1217.65 203.2 1217.65 195 1215.65 187L1210.85 170.8L1174.85 38.2L1171.25 25.6L1176.05 8.19999H1321.25L1245.05 287.2V289H1118.45L1106.45 244.6L1095.05 287.2L1094.45 289H939.647Z" fill="#FFFFFF"/>
<path d="M1456.36 289H1322.56V8.19999H1431.76V87.4H1435.96C1442.76 46.2 1462.56 19.4 1495.36 6.99999C1522.16 -3.40001 1548.16 -1.80001 1573.36 11.8C1597.76 25 1609.96 44.6 1609.96 70.6V289H1464.76V106.6C1459.16 107.4 1456.36 110.6 1456.36 116.2V289Z" fill="#FFFFFF"/>
</svg>
